<svg xmlns="http://www.w3.org/2000/svg" width="600" height="400" viewBox="0 0 600 400"><rect width="100%" height="100%" fill="#DDDDDD"/><path fill="#999999" d="M303.8 250.1h37.1q4 0 6.35 2.25 2.35 2.25 2.35 5.95v14.8h-99.2v-8.2q0-2.5 1.05-5.25t3.35-4.95l43.9-44q5.5-5.6 9.85-10.7t7.25-10.1q2.9-5 4.45-10.15 1.55-5.15 1.55-10.85 0-5.2-1.5-9.15t-4.25-6.65q-2.75-2.7-6.6-4.05-3.85-1.35-8.65-1.35-4.4 0-8.15 1.25t-6.65 3.5q-2.9 2.25-4.9 5.25-2 3-3 6.6-1.7 4.6-4.4 6.1t-7.8.7l-13-2.3q1.5-10.4 5.8-18.25t10.75-13.1q6.45-5.25 14.8-7.9 8.35-2.65 17.95-2.65 10 0 18.3 2.95t14.2 8.35q5.9 5.4 9.2 13 3.3 7.6 3.3 16.9 0 8-2.35 14.8-2.35 6.8-6.3 13-3.95 6.2-9.25 12t-11.1 11.8L285.6 253q4.7-1.4 9.35-2.15 4.65-.75 8.85-.75Z"/></svg>