<svg xmlns="http://www.w3.org/2000/svg" width="600" height="400" viewBox="0 0 600 400"><rect width="100%" height="100%" fill="#DDDDDD"/><path fill="#999999" d="m267.2 170.3-13-2.3q1.5-10.4 5.8-18.25t10.75-13.1q6.45-5.25 14.8-7.9 8.35-2.65 17.95-2.65 10 0 18.05 2.85t13.75 7.9q5.7 5.05 8.75 11.85t3.05 14.7q0 6.9-1.55 12.15t-4.45 9.15q-2.9 3.9-7.2 6.6-4.3 2.7-9.7 4.5 13 4.1 19.4 12.5 6.4 8.4 6.4 21.1 0 10.8-4 19.1t-10.8 13.95q-6.8 5.65-15.75 8.55-8.95 2.9-18.95 2.9-10.9 0-19-2.5t-14.1-7.4q-6-4.9-10.2-12-4.2-7.1-7.2-16.4l10.9-4.5q4.3-1.8 8.05-.95 3.75.85 5.45 4.05 1.8 3.5 3.95 6.9 2.15 3.4 5.15 6.05 3 2.65 7.05 4.3t9.65 1.65q6.3 0 11-2.05t7.85-5.35q3.15-3.3 4.7-7.35 1.55-4.05 1.55-8.15 0-5.2-1.1-9.45-1.1-4.25-4.6-7.25-3.5-3-10.05-4.7-6.55-1.7-17.55-1.7v-17.6q9.1-.1 15.1-1.7 6-1.6 9.55-4.45 3.55-2.85 4.95-6.85 1.4-4 1.4-8.8 0-10.2-5.7-15.5-5.7-5.3-15.2-5.3-4.4 0-8.1 1.25-3.7 1.25-6.65 3.5t-4.95 5.25q-2 3-3 6.6-1.7 4.6-4.45 6.1t-7.75.7Z"/></svg>