<svg xmlns="http://www.w3.org/2000/svg" width="600" height="400" viewBox="0 0 600 400"><rect width="100%" height="100%" fill="#DDDDDD"/><path fill="#999999" d="m288.9 149.3-5.1 30.1q4.8-1 9.2-1.45 4.4-.45 8.5-.45 11.4 0 20.1 3.4 8.7 3.4 14.6 9.4t8.9 14.05q3 8.05 3 17.35 0 11.5-4.05 21t-11.25 16.25q-7.2 6.75-17.05 10.45-9.85 3.7-21.45 3.7-6.8 0-12.9-1.4-6.1-1.4-11.45-3.75t-9.9-5.4q-4.55-3.05-8.15-6.45l7.6-10.5q2.4-3.4 6.3-3.4 2.5 0 5.1 1.6 2.6 1.6 5.95 3.5t7.9 3.5q4.55 1.6 10.95 1.6 6.8 0 12-2.2t8.65-6.15q3.45-3.95 5.2-9.4t1.75-11.85q0-11.8-6.85-18.45-6.85-6.65-20.25-6.65-10.3 0-21.1 3.8l-15.4-4.4 12-70.2h71.4v10.5q0 5.3-3.3 8.6t-11.2 3.3h-39.7Z"/></svg>