<svg xmlns="http://www.w3.org/2000/svg" width="600" height="400" viewBox="0 0 600 400"><rect width="100%" height="100%" fill="#DDDDDD"/><path fill="#999999" d="m336.2 126.9-42.9 52.5-5 6.2q4.2-2.1 9.05-3.25 4.85-1.15 10.45-1.15 8.2 0 15.95 2.7t13.65 8.15q5.9 5.45 9.5 13.55 3.6 8.1 3.6 18.9 0 10.1-3.7 18.95t-10.4 15.45q-6.7 6.6-16.15 10.4-9.45 3.8-20.85 3.8-11.6 0-20.8-3.7-9.2-3.7-15.7-10.35-6.5-6.65-9.95-16-3.45-9.35-3.45-20.75 0-10.2 4.15-20.95T266.5 179l34.5-46.3q1.8-2.4 5.25-4.1 3.45-1.7 7.95-1.7h22Zm-37.3 126q5.9 0 10.85-2 4.95-2 8.5-5.6 3.55-3.6 5.55-8.45t2-10.55q0-6.2-1.9-11.15t-5.4-8.4q-3.5-3.45-8.4-5.25-4.9-1.8-10.8-1.8t-10.7 2q-4.8 2-8.2 5.55-3.4 3.55-5.3 8.4-1.9 4.85-1.9 10.45 0 6 1.65 10.95 1.65 4.95 4.9 8.45 3.25 3.5 8.05 5.45 4.8 1.95 11.1 1.95Z"/></svg>